<?xml version="1.0" encoding="utf-8"?>
<!-- Generator: Adobe Illustrator 22.0.0, SVG Export Plug-In . SVG Version: 6.00 Build 0)  -->
<svg version="1.1" xmlns="http://www.w3.org/2000/svg" xmlns:xlink="http://www.w3.org/1999/xlink" x="0px" y="0px"
	 viewBox="0 0 500 500" style="enable-background:new 0 0 500 500;" xml:space="preserve">
<style type="text/css">
	.st0{fill:#F9FBFC;}
	.st1{fill:#FF6B79;}
	.st2{fill:#253A45;}
	.st3{fill:#7C9BA5;}
	.st4{fill:#1A2B32;}
	.st5{fill:#455D68;}
	.st6{fill:#F9F8F7;}
</style>
<g id="BACKGROUND">
	<rect class="st0" width="500" height="500"/>
</g>
<g id="OBJECTS">
	<g>
		<g>
			<g>
				<g id="XMLID_7_">
					<g>
						<path class="st1" d="M415.8,324c0,2.6-0.1,5.2-0.3,7.8h0c-16.6-10.4-69-31.4-69-31.4s-18.2-15.5-28.8-29.9
							c1.3-4.9,3.7-15.9,5.8-26.2c0.3-1.4,0.6-2.8,0.9-4.2c0.8-0.1,1.5-0.3,2.2-0.4c11.4-2.5,16.1-9.3,17.6-19.4
							C387.4,242.9,415.8,280.9,415.8,324z"/>
						<path class="st2" d="M389.5,323.2c1.2,0.9,20.7,15.9,21.6,18.8c0.9,2.8-6.9,28.9-11.6,36.5c-0.1,0.2-0.3,0.4-0.4,0.6
							c-14.7,23-38.3,42.1-67.4,54.6c14.3-16.2,21.7-42.8,21.7-42.8l-9-31.9l20.6-4.8l4.3-23.2c-4.6-12.8-15.3-21.7-15.3-21.7
							c-2.3-3.1-4.8-6.1-7.5-8.9c0,0,52.4,21,69,31.4h0c-0.1,1.3-0.2,2.7-0.4,4L389.5,323.2z"/>
						<path class="st3" d="M389.5,323.2l25.5,12.5c-1.8,15.2-7.2,29.6-15.5,42.7c4.6-7.6,12.5-33.7,11.6-36.5
							C410.2,339.2,390.7,324.2,389.5,323.2z"/>
						<path class="st4" d="M373.4,146c12.8,3.9,28.4,15,27.8,27.5c0,0-3.1-6.3-11.4-15C382.1,150.4,374.3,146.5,373.4,146z"/>
						<path class="st2" d="M383.7,197.8c-1.4,0.7-46.5,21.7-132.9,21.7V183c28.8,0,55.4-4.2,72-11.1c15.9-6.6,23.5-12.7,23.6-15
							c0.1-2.3-10.6-4.2-10.6-4.2l-0.2,0c-0.6-4.6-1.4-9.6-2.2-14.7c-0.1-0.6-0.2-1.3-0.3-1.9l2.4-0.1c71,4.7,78.3,35.7,63.6,53.8
							c-8.7,10.7-23.3,21.5-54.8,28.5c-0.8,0.2-1.6,0.3-2.3,0.5c-4.3,0.9-8.9,1.8-13.9,2.5c-19.9,3.1-45.1,4.9-77.3,4.9v-3.3
							C329.4,223.1,364,211,383.7,197.8z M401.1,173.5c0.6-12.5-15-23.6-27.8-27.5c0,0-0.1,0-0.1,0c0,0,0,0,0.1,0
							c0.9,0.5,8.7,4.4,16.4,12.5C398,167.1,401.1,173.5,401.1,173.5z"/>
						<path class="st4" d="M361.4,350.5L361.4,350.5c3.4-12.1,5.2-20.3,5.2-20.3s-4.8-10.4-12.6-20.9c0,0,10.7,8.9,15.3,21.7
							l-4.3,23.2l-20.6,4.8l9,31.9c0,0-7.4,26.7-21.7,42.8c-2.4,1-4.9,2-7.4,3c10-11.3,18.9-31.2,25.9-50.8
							c-0.1-0.3-11.4-28.4-11.4-28.4l6.6-2L361.4,350.5z"/>
						<path class="st2" d="M346.5,385.8c-0.4,0.2-5.9,3.8-18.9-3c-13.8-7.1-13.8-38.8-13.8-38.8c0.3,27.5-6.8,76.5-15.9,100.5
							c-0.5,0.1-1.1,0.2-1.6,0.4c4.7-20.1,12.1-79.1,14.1-123.7c0.7-14.9,0.7-28.2-0.1-38c3.9-5.4,6.7-10.1,7.4-12.9
							c10.6,14.4,28.8,29.9,28.8,29.9c2.7,2.8,5.2,5.9,7.5,8.9c7.7,10.5,12.6,20.9,12.6,20.9s-1.9,8.2-5.2,20.3h0l-15.9,4.9
							l-25.7-37.1c0.7,1.3,12.2,21.4,19.1,39.1c0,0,11.3,28.1,11.4,28.4c-7,19.6-15.9,39.5-25.9,50.8l0,0c-1.5,0.6-3.1,1.1-4.6,1.7
							C328.3,426.3,338.4,409.1,346.5,385.8z"/>
						<path class="st4" d="M250.8,219.6c86.4,0,131.5-21.1,132.9-21.7c-19.7,13.2-54.4,25.3-132.9,25.3V219.6z"/>
						<path class="st4" d="M335.8,152.8c0,0,10.8,1.8,10.6,4.2c-0.1,2.3-7.7,8.4-23.6,15c-16.6,6.9-43.2,11.1-72,11.1v-3.5
							c65.8,0,85.6-20.1,85.6-20.1c-0.2-2.1-0.4-4.3-0.7-6.6L335.8,152.8z"/>
						<path class="st4" d="M319.8,318.2l25.7,37.1l-6.6,2C332,339.6,320.5,319.5,319.8,318.2z"/>
						<path class="st3" d="M344.2,220.2c-1.4,10.1-6.2,16.9-17.6,19.4c0,0,8.7-6.7,10.7-9.3c4.7-6,4.7-11.3,4.7-11.3
							c0.8-0.2,1.6-0.3,2.3-0.5C344.3,219.1,344.3,219.6,344.2,220.2z"/>
						<path class="st2" d="M327.6,382.9c13,6.7,18.5,3.2,18.9,3c-8.1,23.2-18.2,40.5-26.7,52.5c-7,2.5-14.3,4.6-21.9,6.3
							c9.1-24,16.2-73,15.9-100.5C313.8,344.1,313.8,375.7,327.6,382.9z"/>
						<path class="st4" d="M342,219c0,0,0,5.3-4.7,11.3c-2,2.6-10.7,9.3-10.7,9.3c-0.7,0.1-1.4,0.3-2.2,0.4
							c1.4-6.6,2.5-12.4,3.2-15.7c0.4-1.8,0.6-2.8,0.6-2.8C333.1,220.7,337.7,219.9,342,219z"/>
						<path class="st5" d="M260.4,145.8c41.2-1.4,65.1-11.6,71.8-14.8c0.2,1.1,0.4,2.3,0.6,3.4c-7.4,4.5-18.1,7.7-31.1,10.2
							c0,0,13.7,3,31.8-6.5c0.9,5.1,1.6,10.1,2.2,14.7c0.3,2.3,0.5,4.5,0.7,6.6c0,0-19.7,20.1-85.6,20.1V146
							C254.1,146,257.3,145.9,260.4,145.8z"/>
						<path class="st2" d="M333.1,136.2c0.1,0.6,0.2,1.3,0.3,1.9c-18.1,9.4-31.8,6.5-31.8,6.5c13-2.5,23.8-5.7,31.1-10.2
							C332.9,135,333,135.6,333.1,136.2z"/>
						<path class="st4" d="M331.4,126.5c0.3,1.5,0.6,3,0.8,4.5c-6.6,3.3-30.6,13.4-71.8,14.8C304.2,141.3,320.4,132.4,331.4,126.5z"
							/>
						<path class="st2" d="M304.1,61.6c0.5,0.5,9.2,8.2,11.2,16.2c2.1,8.3,7.9,37,7.9,37l-3.5-39.1
							C319.8,75.8,316.9,68.4,304.1,61.6z M322.4,72.7c1.3,14.9,5.5,35,9,53.8c-10.9,6-27.2,14.8-71,19.3c-3.1,0.1-6.3,0.2-9.5,0.2
							V72.1c29.6,0,31.7-17.4,31.7-17.4c-6.2,4.4-12.8,8.3-31.7,8.3v-2.3c3.9,0.2,9.8,0.1,16.6-1.9c7.8-2.3,13.4-6,16.7-8.5
							c5.5-0.2,12.4,0,25.8,9.7C315.8,64.1,319.8,68.9,322.4,72.7z"/>
						<path class="st4" d="M328.1,221.5c0,0-0.2,1-0.6,2.8c0,0-4.6,11.3-8,22.2c-4.3,1.9-8.6,2.1-20.7,2.3
							c-15.7,0.3-20.1,3.4-26.3,3.6c-6.2,0.2-13-7.2-21.7-7.2v-18.8C283.1,226.4,308.3,224.6,328.1,221.5z"/>
						<path class="st3" d="M327.6,224.3c-0.6,3.3-1.8,9.2-3.2,15.7c-0.3,1.4-0.6,2.8-0.9,4.2c-1.4,0.9-2.7,1.7-3.9,2.2
							C323,235.6,327.6,224.3,327.6,224.3z"/>
						<path class="st5" d="M319.8,75.8l3.5,39.1c0,0-5.8-28.7-7.9-37c-2.1-8-10.7-15.8-11.2-16.2C316.9,68.4,319.8,75.8,319.8,75.8z
							"/>
						<path class="st0" d="M319.6,246.4c1.3-0.6,2.5-1.3,3.9-2.2c-2.2,10.3-4.5,21.3-5.8,26.2c-0.7,2.8-3.5,7.5-7.4,12.9
							c-2.7,3.7-5.8,7.8-9.3,11.9c-6.5,7.7-13.8,15.5-20.3,21.2c1.1-1.1,11-11.1,19.7-24.6c9.1-14.3,13.8-21.9,16.1-33.9
							C317.1,254.6,318.3,250.6,319.6,246.4z"/>
						<path class="st3" d="M264,326.3c-5.2,1.2-10.6,1.4-13.2,1.4v-27.1c7,0,15.3-5.1,15.9-5.4c-0.4,0-5.2,0.6-15.9,0.6v-7.6
							c14.1,0,27.5-1.9,27.5-1.9c-7.2-0.1-18.7-3.1-20.5-3c-1.8,0.1-7,3.6-7,3.6v-15.1c5.9,0,8.5-2.3,9.7-4.5
							c7.4-1.6,8.2-6.5,8.2-6.5c-1.3,1.7-2.9,3-7.2,2.8c0,0-3.9,5.4-10.7,5.4v-24c8.7,0,15.5,7.4,21.7,7.2
							c6.2-0.2,10.6-3.3,26.3-3.6c12.1-0.2,16.5-0.4,20.7-2.3c-1.3,4.1-2.5,8.2-3.1,11.5c-2.3,12-6.9,19.6-16.1,33.9
							c-8.6,13.5-18.6,23.5-19.7,24.6c-0.1,0-0.1,0.1-0.1,0.1c-4.2,3.7-7.9,6.5-10.8,7.8C268,325.2,266,325.8,264,326.3z M269.5,261
							c6,1.5,13.1,11.5,14.1,19.3c0.1,1.5,0.1,2.4,0.1,2.4c0-0.8,0-1.6-0.1-2.4c-0.2-2.9-0.7-8-2.1-12
							C279.7,263.3,271.9,261.5,269.5,261z"/>
						<path class="st0" d="M310.3,283.3c0.9,9.7,0.8,23,0.1,38c-0.7,4.8-1.6,9.5-2.6,13.7c-3.2,14.1-7.1,24-7.1,24
							c-7.3-10.1-17.7-19-25.6-25c-2.9-2.2-5.5-4-7.4-5.3c14.4-4.5,22.6-15.9,33.4-33.5C304.4,291.1,307.6,287,310.3,283.3z"/>
						<path class="st3" d="M307.8,335c1-4.2,1.9-8.9,2.6-13.7c-2,44.6-9.4,103.6-14.1,123.7c-3,0.7-6.1,1.3-9.1,1.8
							C296.8,420.1,307.5,337.6,307.8,335z"/>
						<path class="st0" d="M300.7,359c0,0,3.9-9.9,7.1-24c-0.3,2.6-11,85.1-20.6,111.8c-3.2,0.5-6.4,1-9.6,1.4
							c0,0-4.2-42.4-5.6-58.4c-1.4-16-9-36.5-9-36.5l7-13.2l2-2.4C272,337.8,289.6,348.6,300.7,359z"/>
						<path class="st2" d="M280.7,316.4c6.5-5.7,13.8-13.6,20.3-21.2c-10.7,17.6-18.9,28.9-33.4,33.5c-2.1-1.4-3.5-2.3-3.6-2.4
							c2-0.5,4-1.1,5.8-1.9C272.7,323,276.5,320.2,280.7,316.4C280.7,316.5,280.7,316.5,280.7,316.4z"/>
						<path class="st2" d="M281.4,268.3c1.4,4,1.9,9,2.1,12c-1-7.9-8.1-17.8-14.1-19.3C271.9,261.5,279.7,263.3,281.4,268.3z"/>
						<path class="st4" d="M300.7,359c-11.1-10.4-28.7-21.2-28.7-21.2l3.1-3.8C283,339.9,293.4,348.8,300.7,359z"/>
						<path class="st4" d="M282.6,54.7c0,0-2.1,17.4-31.7,17.4V63C269.8,63,276.4,59.1,282.6,54.7z"/>
						<path class="st4" d="M277.5,448.2c-1.6,0.2-3.3,0.4-5,0.6c0,0-2.1-45.4-4.7-63.4c-2.6-18.1-8.5-32.5-8.5-32.5l10.6-12.7
							l-7,13.2c0,0,7.6,20.5,9,36.5C273.3,405.8,277.5,448.2,277.5,448.2z"/>
						<path class="st2" d="M275.1,334l-3.1,3.8l-2,2.4l-10.6,12.7h-8.5v-21.8c6.5,0,12-0.8,16.8-2.3
							C269.6,330,272.2,331.8,275.1,334z"/>
						<path class="st2" d="M272.6,448.7c-1.2,0.1-2.4,0.2-3.6,0.3l0-0.3c1-18.8-2.9-60.1-2.9-60.1s-0.4,50.7-7.5,61.1
							c-2.5,0.1-5,0.1-7.6,0.1v-97.1h8.5c0,0,5.9,14.4,8.5,32.5C270.5,403.4,272.6,448.7,272.6,448.7z"/>
						<path class="st2" d="M278.3,286.3c0,0-13.4,1.9-27.5,1.9v-1.3c0,0,5.2-3.4,7-3.6C259.6,283.2,271.1,286.2,278.3,286.3z"/>
						<path class="st3" d="M266,388.6c0,0,4,41.3,2.9,60.1l0,0.3c-3.5,0.3-7,0.5-10.5,0.6C265.6,439.3,266,388.6,266,388.6z"/>
						<path class="st4" d="M268.8,260.9c0,0-0.8,4.9-8.2,6.5c1-1.9,1-3.6,1-3.6C265.9,263.9,267.5,262.6,268.8,260.9z"/>
						<path class="st4" d="M264,326.3c0.2,0.1,1.5,1,3.6,2.4c-4.8,1.5-10.3,2.3-16.8,2.3v-3.2C253.3,327.7,258.8,327.5,264,326.3z"
							/>
						<path class="st3" d="M250.8,295.8c10.6,0,15.5-0.6,15.9-0.6c-0.5,0.3-8.9,5.4-15.9,5.4V295.8z"/>
						<path class="st4" d="M260.6,267.3c-1.2,2.2-3.9,4.5-9.7,4.5v-2.7c6.8,0,10.7-5.4,10.7-5.4S261.6,265.4,260.6,267.3z"/>
					</g>
				</g>
				<g id="XMLID_6_">
					<g>
						<path class="st1" d="M85.9,324c0,2.6,0.1,5.2,0.3,7.8h0c16.6-10.4,69-31.4,69-31.4s18.2-15.5,28.8-29.9
							c-1.3-4.9-3.7-15.9-5.8-26.2c-0.3-1.4-0.6-2.8-0.9-4.2c-0.8-0.1-1.5-0.3-2.2-0.4c-11.4-2.5-16.1-9.3-17.6-19.4
							C114.2,242.9,85.9,280.9,85.9,324z"/>
						<path class="st2" d="M112.2,323.2c-1.2,0.9-20.7,15.9-21.6,18.8c-0.9,2.8,6.9,28.9,11.6,36.5c0.1,0.2,0.3,0.4,0.4,0.6
							c14.7,23,38.3,42.1,67.4,54.6c-14.3-16.2-21.7-42.8-21.7-42.8l9-31.9l-20.6-4.8l-4.3-23.2c4.6-12.8,15.3-21.7,15.3-21.7
							c2.3-3.1,4.8-6.1,7.5-8.9c0,0-52.4,21-69,31.4h0c0.1,1.3,0.2,2.7,0.4,4L112.2,323.2z"/>
						<path class="st3" d="M112.2,323.2l-25.5,12.5c1.8,15.2,7.2,29.6,15.5,42.7c-4.6-7.6-12.5-33.7-11.6-36.5
							C91.5,339.2,110.9,324.2,112.2,323.2z"/>
						<path class="st4" d="M128.3,146c-12.8,3.9-28.4,15-27.8,27.5c0,0,3.1-6.3,11.4-15C119.6,150.4,127.4,146.5,128.3,146z"/>
						<path class="st2" d="M168.2,138.1c0.1-0.6,0.2-1.3,0.3-1.9l-2.4-0.1c-71,4.7-78.3,35.7-63.6,53.8
							c8.7,10.7,23.3,21.5,54.8,28.5c0.8,0.2,1.6,0.3,2.3,0.5c4.3,0.9,8.9,1.8,13.9,2.5c19.9,3.1,45.1,4.9,77.3,4.9v-3.3
							c-78.5,0-113.2-12.1-132.9-25.3c1.4,0.7,46.5,21.7,132.9,21.7V183c-28.8,0-55.4-4.2-72-11.1c-15.9-6.6-23.5-12.7-23.6-15
							c-0.1-2.3,10.6-4.2,10.6-4.2l0.2,0C166.6,148.2,167.4,143.2,168.2,138.1z M100.5,173.5c-0.6-12.5,15-23.6,27.8-27.5
							c0,0,0.1,0,0.1,0c0,0,0,0-0.1,0c-0.9,0.5-8.7,4.4-16.4,12.5C103.6,167.1,100.5,173.5,100.5,173.5z"/>
						<path class="st4" d="M140.3,350.5L140.3,350.5c-3.4-12.1-5.2-20.3-5.2-20.3s4.8-10.4,12.6-20.9c0,0-10.7,8.9-15.3,21.7
							l4.3,23.2l20.6,4.8l-9,31.9c0,0,7.4,26.7,21.7,42.8c2.4,1,4.9,2,7.4,3c-10-11.3-18.9-31.2-25.9-50.8
							c0.1-0.3,11.4-28.4,11.4-28.4l-6.6-2L140.3,350.5z"/>
						<path class="st2" d="M181.9,318.2c-0.7,1.3-12.2,21.4-19.1,39.1c0,0-11.3,28.1-11.4,28.4c7,19.6,15.9,39.5,25.9,50.8l0,0
							c1.5,0.6,3.1,1.1,4.6,1.7c-8.5-12-18.6-29.3-26.7-52.5c0.4,0.2,5.9,3.8,18.9-3c13.8-7.1,13.8-38.8,13.8-38.8
							c-0.3,27.5,6.8,76.5,15.9,100.5c0.5,0.1,1.1,0.2,1.6,0.4c-4.7-20.1-12.1-79.1-14.1-123.7c-0.7-14.9-0.7-28.2,0.1-38
							c-3.9-5.4-6.7-10.1-7.4-12.9c-10.6,14.4-28.8,29.9-28.8,29.9c-2.7,2.8-5.2,5.9-7.5,8.9c-7.7,10.5-12.6,20.9-12.6,20.9
							s1.9,8.2,5.2,20.3h0l15.9,4.9L181.9,318.2z"/>
						<path class="st4" d="M250.8,219.6c-86.4,0-131.5-21.1-132.9-21.7c19.7,13.2,54.4,25.3,132.9,25.3V219.6z"/>
						<path class="st4" d="M165.8,152.8c0,0-10.8,1.8-10.6,4.2c0.1,2.3,7.7,8.4,23.6,15c16.6,6.9,43.2,11.1,72,11.1v-3.5
							c-65.8,0-85.6-20.1-85.6-20.1c0.2-2.1,0.4-4.3,0.7-6.6L165.8,152.8z"/>
						<path class="st4" d="M181.9,318.2l-25.7,37.1l6.6,2C169.7,339.6,181.2,319.5,181.9,318.2z"/>
						<path class="st3" d="M157.5,220.2c1.4,10.1,6.2,16.9,17.6,19.4c0,0-8.7-6.7-10.7-9.3c-4.7-6-4.7-11.3-4.7-11.3
							c-0.8-0.2-1.6-0.3-2.3-0.5C157.3,219.1,157.4,219.6,157.5,220.2z"/>
						<path class="st2" d="M174.1,382.9c-13,6.7-18.5,3.2-18.9,3c8.1,23.2,18.2,40.5,26.7,52.5c7,2.5,14.3,4.6,21.9,6.3
							c-9.1-24-16.2-73-15.9-100.5C187.9,344.1,187.9,375.7,174.1,382.9z"/>
						<path class="st4" d="M159.6,219c0,0,0,5.3,4.7,11.3c2,2.6,10.7,9.3,10.7,9.3c0.7,0.1,1.4,0.3,2.2,0.4
							c-1.4-6.6-2.5-12.4-3.2-15.7c-0.4-1.8-0.6-2.8-0.6-2.8C168.6,220.7,164,219.9,159.6,219z"/>
						<path class="st5" d="M241.3,145.8c-41.2-1.4-65.1-11.6-71.8-14.8c-0.2,1.1-0.4,2.3-0.6,3.4c7.4,4.5,18.1,7.7,31.1,10.2
							c0,0-13.7,3-31.8-6.5c-0.9,5.1-1.6,10.1-2.2,14.7c-0.3,2.3-0.5,4.5-0.7,6.6c0,0,19.7,20.1,85.6,20.1V146
							C247.6,146,244.4,145.9,241.3,145.8z"/>
						<path class="st2" d="M168.6,136.2c-0.1,0.6-0.2,1.3-0.3,1.9c18.1,9.4,31.8,6.5,31.8,6.5c-13-2.5-23.8-5.7-31.1-10.2
							C168.8,135,168.7,135.6,168.6,136.2z"/>
						<path class="st4" d="M170.3,126.5c-0.3,1.5-0.6,3-0.8,4.5c6.6,3.3,30.6,13.4,71.8,14.8C197.5,141.3,181.2,132.4,170.3,126.5z"
							/>
						<path class="st2" d="M197.6,61.6c-0.5,0.5-9.2,8.2-11.2,16.2c-2.1,8.3-7.9,37-7.9,37l3.5-39.1
							C181.9,75.8,184.8,68.4,197.6,61.6z M179.3,72.7c-1.3,14.9-5.5,35-9,53.8c10.9,6,27.2,14.8,71,19.3c3.1,0.1,6.3,0.2,9.5,0.2
							V72.1c-29.6,0-31.7-17.4-31.7-17.4c6.2,4.4,12.8,8.3,31.7,8.3v-2.3c-3.9,0.2-9.8,0.1-16.6-1.9c-7.8-2.3-13.4-6-16.7-8.5
							c-5.5-0.2-12.4,0-25.8,9.7C185.8,64.1,181.9,68.9,179.3,72.7z"/>
						<path class="st4" d="M173.5,221.5c0,0,0.2,1,0.6,2.8c0,0,4.6,11.3,8,22.2c4.3,1.9,8.6,2.1,20.7,2.3
							c15.7,0.3,20.1,3.4,26.3,3.6c6.2,0.2,13-7.2,21.7-7.2v-18.8C218.6,226.4,193.4,224.6,173.5,221.5z"/>
						<path class="st3" d="M174.1,224.3c0.6,3.3,1.8,9.2,3.2,15.7c0.3,1.4,0.6,2.8,0.9,4.2c1.4,0.9,2.7,1.7,3.9,2.2
							C178.7,235.6,174.1,224.3,174.1,224.3z"/>
						<path class="st5" d="M181.9,75.8l-3.5,39.1c0,0,5.8-28.7,7.9-37c2.1-8,10.7-15.8,11.2-16.2C184.8,68.4,181.9,75.8,181.9,75.8z
							"/>
						<path class="st0" d="M182.1,246.4c-1.3-0.6-2.5-1.3-3.9-2.2c2.2,10.3,4.5,21.3,5.8,26.2c0.7,2.8,3.5,7.5,7.4,12.9
							c2.7,3.7,5.8,7.8,9.3,11.9c6.5,7.7,13.8,15.5,20.3,21.2c-1.1-1.1-11-11.1-19.7-24.6c-9.1-14.3-13.8-21.9-16.1-33.9
							C184.6,254.6,183.4,250.6,182.1,246.4z"/>
						<path class="st3" d="M232.2,261c-6,1.5-13.1,11.5-14.1,19.3c-0.1,1.5-0.1,2.4-0.1,2.4c0-0.8,0-1.6,0.1-2.4
							c0.2-2.9,0.7-8,2.1-12C222,263.3,229.8,261.5,232.2,261z M237.7,326.3c5.2,1.2,10.6,1.4,13.2,1.4v-27.1
							c-7,0-15.3-5.1-15.9-5.4c0.4,0,5.2,0.6,15.9,0.6v-7.6c-14.1,0-27.5-1.9-27.5-1.9c7.2-0.1,18.7-3.1,20.5-3c1.8,0.1,7,3.6,7,3.6
							v-15.1c-5.9,0-8.5-2.3-9.7-4.5c-7.4-1.6-8.2-6.5-8.2-6.5c1.3,1.7,2.9,3,7.2,2.8c0,0,3.9,5.4,10.7,5.4v-24
							c-8.7,0-15.5,7.4-21.7,7.2c-6.2-0.2-10.6-3.3-26.3-3.6c-12.1-0.2-16.5-0.4-20.7-2.3c1.3,4.1,2.5,8.2,3.1,11.5
							c2.3,12,6.9,19.6,16.1,33.9c8.6,13.5,18.6,23.5,19.7,24.6c0.1,0,0.1,0.1,0.1,0.1c4.2,3.7,7.9,6.5,10.8,7.8
							C233.6,325.2,235.6,325.8,237.7,326.3z"/>
						<path class="st0" d="M191.4,283.3c-0.9,9.7-0.8,23-0.1,38c0.7,4.8,1.6,9.5,2.6,13.7c3.2,14.1,7.1,24,7.1,24
							c7.3-10.1,17.7-19,25.6-25c2.9-2.2,5.5-4,7.4-5.3c-14.4-4.5-22.6-15.9-33.4-33.5C197.3,291.1,194.1,287,191.4,283.3z"/>
						<path class="st3" d="M193.9,335c-1-4.2-1.9-8.9-2.6-13.7c2,44.6,9.4,103.6,14.1,123.7c3,0.7,6.1,1.3,9.1,1.8
							C204.9,420.1,194.2,337.6,193.9,335z"/>
						<path class="st0" d="M201,359c0,0-3.9-9.9-7.1-24c0.3,2.6,11,85.1,20.6,111.8c3.2,0.5,6.4,1,9.6,1.4c0,0,4.2-42.4,5.6-58.4
							c1.4-16,9-36.5,9-36.5l-7-13.2l-2-2.4C229.7,337.8,212.1,348.6,201,359z"/>
						<path class="st2" d="M220.9,316.4c-6.5-5.7-13.8-13.6-20.3-21.2c10.7,17.6,18.9,28.9,33.4,33.5c2.1-1.4,3.5-2.3,3.6-2.4
							c-2-0.5-4-1.1-5.8-1.9C228.9,323,225.2,320.2,220.9,316.4C221,316.5,221,316.5,220.9,316.4z"/>
						<path class="st2" d="M220.2,268.3c-1.4,4-1.9,9-2.1,12c1-7.9,8.1-17.8,14.1-19.3C229.8,261.5,222,263.3,220.2,268.3z"/>
						<path class="st4" d="M201,359c11.1-10.4,28.7-21.2,28.7-21.2l-3.1-3.8C218.7,339.9,208.3,348.8,201,359z"/>
						<path class="st4" d="M219.1,54.7c0,0,2.1,17.4,31.7,17.4V63C231.9,63,225.3,59.1,219.1,54.7z"/>
						<path class="st4" d="M224.1,448.2c1.6,0.2,3.3,0.4,5,0.6c0,0,2.1-45.4,4.7-63.4c2.6-18.1,8.5-32.5,8.5-32.5l-10.6-12.7l7,13.2
							c0,0-7.6,20.5-9,36.5C228.4,405.8,224.1,448.2,224.1,448.2z"/>
						<path class="st2" d="M226.6,334l3.1,3.8l2,2.4l10.6,12.7h8.5v-21.8c-6.5,0-12-0.8-16.8-2.3C232.1,330,229.5,331.8,226.6,334z"
							/>
						<path class="st2" d="M229.1,448.7c1.2,0.1,2.4,0.2,3.6,0.3l0-0.3c-1-18.8,2.9-60.1,2.9-60.1s0.4,50.7,7.5,61.1
							c2.5,0.1,5,0.1,7.6,0.1v-97.1h-8.5c0,0-5.9,14.4-8.5,32.5C231.2,403.4,229.1,448.7,229.1,448.7z"/>
						<path class="st2" d="M223.3,286.3c0,0,13.4,1.9,27.5,1.9v-1.3c0,0-5.2-3.4-7-3.6C242.1,283.2,230.6,286.2,223.3,286.3z"/>
						<path class="st4" d="M235.7,388.6c0,0-4,41.3-2.9,60.1l0,0.3c3.5,0.3,7,0.5,10.5,0.6C236.1,439.3,235.7,388.6,235.7,388.6z"/>
						<path class="st4" d="M232.9,260.9c0,0,0.8,4.9,8.2,6.5c-1-1.9-1-3.6-1-3.6C235.8,263.9,234.2,262.6,232.9,260.9z"/>
						<path class="st4" d="M237.7,326.3c-0.2,0.1-1.5,1-3.6,2.4c4.8,1.5,10.3,2.3,16.8,2.3v-3.2
							C248.3,327.7,242.9,327.5,237.7,326.3z"/>
						<path class="st3" d="M250.8,295.8c-10.6,0-15.5-0.6-15.9-0.6c0.5,0.3,8.9,5.4,15.9,5.4V295.8z"/>
						<path class="st4" d="M241.1,267.3c1.2,2.2,3.9,4.5,9.7,4.5v-2.7c-6.8,0-10.7-5.4-10.7-5.4S240.1,265.4,241.1,267.3z"/>
					</g>
				</g>
			</g>
			<path class="st0" d="M225.2,287.3c3.5,1.6,2.5,4.5,9.5,4.5c7,0,14.3-1.1,14.3-1.1l17-1.9l10.5-2.1l-0.4-0.2
				c0,0-12.3,1.7-25.3,1.7c-13,0-27.2-1.9-27.2-1.9L225.2,287.3z"/>
			<path class="st4" d="M262.6,289.1c-2.9,0-6.8,0-10.8-0.1c-7.9-0.1-14.1-0.4-27.3-2.6c0,0-0.1,0-0.1,0h-0.7l1.4,0.9
				c3.5,1.6,2.5,4.5,9.5,4.5c7,0,14.3-1.1,14.3-1.1L262.6,289.1z"/>
			<path class="st0" d="M257.2,256.3c1.7-0.2,2.6,6.9,0.2,6.9C255,263.2,254.8,256.6,257.2,256.3z"/>
			<path class="st0" d="M264.6,290.5c1.6-1.8,5.9-0.7,4.2,0.5C267,292.2,263.3,292,264.6,290.5z"/>
			<path class="st4" d="M237.7,290.7c6.8,0.6,32.5-2.4,40.7-4.4c0,0-7.1,3-17.8,3.6c-10.6,0.6-24.3,3.8-24.3,3.8L237.7,290.7z"/>
			<path class="st4" d="M223.3,286.3c0,0,2.6,2.4,6,4.9l1.4-1l-6.2-3.7L223.3,286.3z"/>
			<path class="st2" d="M243.6,299.4c6.3-0.6,20.3-2.2,20.7-1.1c0.3,1.2-8.4,4.8-13.2,4.8C246.3,303.2,243.6,299.4,243.6,299.4z"/>
			<g>
				<path class="st4" d="M274.3,286c0.8-0.4,3.9-0.3,4.5,0.2c0.6,0.5,3.5,3.9,1.7,4.1C279.7,290.5,274.3,286,274.3,286z"/>
				<path class="st4" d="M227.4,286c-0.8-0.4-3.9-0.3-4.5,0.2c-0.6,0.5-3.5,3.9-1.7,4.1C221.9,290.5,227.4,286,227.4,286z"/>
			</g>
			<g>
				<path class="st2" d="M237.8,291.9c-0.8,2.2-23.1,21.6-28.7,27v0c-1.4,1.4-2.3,2.2-2.3,2.2c-0.1,0-4.3,0-7.1-3.9
					c-2.9-3.9-1.1-5.9-1.1-5.9l1.5-1.1h0l31.7-23.7C235.1,285.4,238.8,289.1,237.8,291.9z"/>
				<path class="st0" d="M209.1,318.9L209.1,318.9c-1.4,1.4-2.3,2.2-2.3,2.2c-0.1,0-4.3,0-7.1-3.9c-2.7-3.7-1.3-5.6-1.1-5.9l0,0
					l1.5-1.1h0C203.3,309.5,208.9,315.6,209.1,318.9z"/>
				<path class="st1" d="M206.8,321.1c-0.1,0-4.3,0-7.1-3.9c-2.7-3.7-1.3-5.6-1.1-5.9l0,0c1-0.7,4.3,1,5.9,3.4
					C206.3,317.1,207.6,320,206.8,321.1z"/>
			</g>
			<path class="st4" d="M237.7,290.7l-28.6,23.9c0,0,0.8,1.2,0.6,2.5l27.9-24.8l0.9-1.6L237.7,290.7z"/>
			<polygon class="st5" points="203.6,309.3 231.6,288.2 206.3,310.6 			"/>
			<path class="st3" d="M346.9,382.3l-17.8-41.6c0,0,8.1,27.5,11.2,32.2C343.4,377.7,346.9,382.3,346.9,382.3z"/>
			<path class="st3" d="M140.2,327.7c0,0,13.3-21.9,15.1-24c1.8-2.1-2.9,6.7-5.6,12.7C146.9,322.5,140.2,327.7,140.2,327.7z"/>
		</g>
		<path class="st6" d="M182.2,299.9c-4.8-3.9-8.7-9.2-9.7-15.4c-1.1-7,1.7-13.9,3.2-20.8c1.5-6.9,1.3-15.2-4.2-19.7
			c-6.5-5.4-17.7-2.8-23.2-9.2c-3.8-4.5-3-11.3-0.8-16.8c2.2-5.5,5.4-10.8,5.7-16.7c0.4-7.3-3.9-14.3-9.8-18.7
			c-5.8-4.4-13-6.8-20.1-8.6c-5.4-1.4-11.1-2.7-15.5-6.1c-1.2-0.9-2.2-2-3.1-3.2c1.3,3.3,3.4,6.2,5.9,8.6c2.7,2.7,5.8,4.9,9.3,6.5
			c3.8,1.9,8,3,11.9,4.8c3.9,1.8,7.6,4.4,9.5,8.2c2.3,4.6,1.6,10.3-0.4,15.1c0.3-3.8-1.9-7.4-4.8-9.8c-6.4-5.3-16.5-8.1-24.6-9.6
			c-3.6-0.7-7.3-1.1-10.6-2.8c-3.2-1.7-5.9-5.2-5.4-8.8c-1.7,7-0.3,14.5,2.9,21c2.1,4.2,4.8,8.1,7.9,11.6c3,3.4,5.6,5.1,9.4,7.2
			c6.8,3.8,15.1,6.4,18.9,13.8c1.7,3.4,2.2,7.4,4.5,10.4c2.4,3.1,6.1,4.5,9.8,6c2.5,0.8,4.9,1.9,6.9,3.6c-2-1.6-4.5-2.6-6.9-3.6
			c-4.7-1.4-9.9-1.6-14.9-1.6c-8.3,0.1-17.3,0.3-24-4.6c-6.1-4.5-8.6-11.9-11.5-19.1c-2.4-4-6-7.3-10.4-8.7c-5.9-1.9-13,0-16.5,5.1
			c-2.4,3.4-2.9,7.8-2.8,11.9c0.1,4.3,0.8,8.7,2.8,12.5c3,5.4,8.4,9,14.3,10.9c11.3,3.8,25.5,4.2,37.3,3.8c3.1-0.1,6.3-0.3,9.4-0.4
			c6.5-0.2,14.1-0.2,19.8,3.2c8.2,4.9,4.8,16.4,5,24.3c0.1,5.4,0.9,11,4.1,15.5c6.1,8.5,17.5,13.1,27.7,13.8
			c3.6,0.2,7.7-0.6,8.7-4.4C192.6,306.4,187,303.7,182.2,299.9z"/>
		<path class="st6" d="M140.4,263.1c0.4,0.1,0.8,0.1,1.2,0.2c2.2,0.4,4.4,1.1,5.9,2.7c2.3,2.3,2.7,5.5,2.9,8.6
			c0.2,3.5,0.2,7.2,2,10.2c-0.5-0.8-1.6-1.5-2.2-2.3c-0.7-1-1.1-2.2-1.6-3.3c-0.9-2.3-1.5-4.7-2.7-6.9c-3-5.3-9.8-5.7-15.3-4.7
			c-4.6,0.9-9.2,2.4-13.8,3.6c-4.9,1.2-10,1.9-15.1,2.2c-2.4,0.2-5,0.2-7-1.1c-1.7-1.1-2.8-3-2.8-5c0-4.4,2.6-4.8,6-4.2
			c5.8,1.1,11.7,0.9,17.6,0.7c4.3-0.1,8.6-0.3,12.8-0.6C132.4,262.9,136.4,262.4,140.4,263.1z"/>
	</g>
</g>
</svg>
