<svg width="325" height="298" viewBox="0 0 325 298" xmlns="http://www.w3.org/2000/svg">
<g fill="current" clip-path="url(#clip0_22_2)">
<path d="M91.2655 220.204C90.6076 218.885 89.9497 218.226 89.2918 217.566L88.6339 216.907C88.6339 216.907 88.6339 217.566 87.976 218.226C87.976 218.885 87.3181 219.544 86.6602 220.863C86.0023 223.5 84.6865 226.137 84.6865 230.093C84.6865 232.071 84.6865 233.389 85.3444 235.367C86.0023 237.345 86.6602 239.323 87.3181 240.642C87.3181 241.301 87.976 241.301 87.976 241.96C87.976 242.619 88.6339 242.62 88.6339 243.279C89.2918 243.938 89.9497 244.597 90.6076 245.257C92.5813 246.575 94.5549 247.894 96.5286 248.553C99.8181 245.916 100.476 242.619 99.8181 239.323C99.8181 237.345 99.1602 236.027 98.5023 234.049C98.5023 233.389 97.8444 233.389 97.8444 232.73C97.8444 232.071 97.1865 232.071 97.1865 231.412C96.5286 230.752 96.5286 229.434 95.8707 228.774C95.2128 227.456 93.8971 225.478 93.2392 224.159C93.2392 222.841 91.9234 221.522 91.2655 220.204Z"/>
<path d="M78.1076 212.951V211.633C77.4497 209.655 77.4497 208.336 76.7918 207.018C76.7918 206.358 76.1339 205.699 76.1339 205.04C76.1339 204.381 75.476 203.721 75.476 203.062C74.8181 201.084 74.1602 199.106 74.1602 199.106C74.1602 199.106 72.8444 200.425 71.5286 202.403C70.8707 203.721 70.2128 205.04 69.555 206.358C68.8971 207.677 68.2392 209.655 67.5813 210.973C66.9234 212.951 66.9234 214.27 66.9234 216.248C66.9234 216.907 66.9234 218.226 66.9234 218.885C66.9234 219.544 66.9234 219.544 66.9234 220.204C66.9234 220.863 66.9234 220.863 67.5813 221.522C68.2392 223.5 68.8971 224.819 70.2128 226.137C70.8707 226.796 71.5286 227.456 72.1865 228.115C72.8444 228.774 74.1602 229.434 74.8181 230.093C78.1076 228.115 79.4234 224.819 79.4234 221.522C79.4234 219.544 79.4234 218.226 79.4234 216.248C79.4234 215.588 79.4234 214.27 78.7655 213.611C78.7655 214.27 78.1076 213.611 78.1076 212.951Z"/>
<path d="M53.1076 208.996C53.7655 209.655 54.4234 210.314 55.7392 210.973C59.6865 209.655 61.6602 207.018 62.3181 203.721C62.3181 203.062 62.976 202.403 62.976 201.084C62.976 200.425 62.976 199.106 63.6339 198.447C63.6339 196.469 63.6339 195.15 63.6339 193.173C63.6339 191.195 63.6339 189.876 63.6339 188.558C63.6339 187.239 62.976 185.92 62.976 184.602C62.976 181.965 62.3181 180.646 62.3181 180.646C62.3181 180.646 61.0023 182.624 59.0286 184.602C58.3707 185.261 57.055 186.58 55.7392 187.898C55.0813 188.558 54.4234 189.217 54.4234 189.876C53.7655 190.535 53.7655 191.195 53.1076 191.854C52.4497 193.173 51.7918 195.15 51.1339 196.469C51.1339 197.128 50.476 198.447 50.476 199.106C50.476 199.765 50.476 201.084 50.476 201.743C50.476 203.721 51.1339 205.04 51.7918 207.018C52.4497 207.677 52.4497 208.336 53.1076 208.996Z"/>
<path d="M39.2918 187.239C39.9497 187.898 40.6076 188.558 41.2655 189.217C45.2128 188.558 47.8444 185.92 49.1602 183.283C49.1602 182.624 49.8181 182.624 49.8181 181.965C49.8181 181.305 50.476 181.305 50.476 180.646C51.1339 179.987 51.1339 179.327 51.1339 178.009C52.4497 178.009 52.4497 176.031 53.1076 174.712C53.7655 173.394 53.7655 171.416 53.7655 170.097C53.7655 169.438 53.7655 168.779 53.7655 168.119C53.7655 167.46 53.7655 166.801 53.7655 166.142C53.7655 163.504 53.7655 162.186 53.7655 162.186C53.7655 162.186 53.1076 162.845 51.1339 164.823C49.8181 165.482 49.1602 166.801 47.8444 167.46C46.5286 168.779 45.2128 169.438 43.897 170.757C42.5813 172.075 41.9234 173.394 40.6076 175.372C39.9497 176.031 39.2918 176.69 39.2918 178.009C39.2918 178.668 38.6339 179.327 38.6339 180.646C38.6339 181.965 37.976 183.942 38.6339 185.92C38.6339 185.92 39.2918 186.58 39.2918 187.239Z"/>
<path d="M42.5813 160.867C43.8971 159.549 44.555 158.23 45.8707 156.911C46.5286 155.593 47.1865 153.615 47.8444 152.296C49.1602 149 49.8181 146.363 50.476 143.726C51.1339 141.748 51.1339 139.77 51.1339 139.77C51.1339 139.77 49.8181 140.429 47.1865 141.748C45.8707 142.407 44.555 143.066 43.2392 143.726C41.9234 144.385 40.6076 145.704 39.2918 147.022C36.6602 149.659 34.0286 152.296 32.7129 154.934C32.055 156.252 31.3971 158.23 31.3971 159.549C31.3971 160.867 32.055 162.845 32.7129 164.164C37.3181 165.482 40.6076 163.504 42.5813 160.867Z"/>
<path d="M37.3181 140.429C37.976 139.77 38.6339 139.111 39.2918 138.451C39.9497 137.792 40.6076 137.133 41.2655 136.473C42.5813 135.155 43.2391 133.836 43.897 132.518C44.5549 131.858 44.5549 131.199 45.2128 130.54C45.8707 129.881 45.8707 129.221 46.5286 128.562C47.1865 127.243 47.8444 125.925 47.8444 124.606C48.5023 122.628 49.1602 120.65 49.1602 120.65C49.1602 120.65 47.1865 121.31 45.2128 121.969C42.5813 123.288 39.9497 124.606 36.6602 126.584C35.3444 127.903 34.0286 128.562 32.7128 129.881C31.397 131.199 30.0813 132.518 29.4234 133.836C28.7655 135.155 28.1076 136.473 27.4497 138.451C27.4497 139.77 27.4497 141.748 28.1076 143.066C32.0549 143.726 35.3444 142.407 37.3181 140.429Z"/>
<path d="M26.7918 120.65C30.0813 121.31 33.3707 119.991 36.0023 118.013C37.3181 117.354 38.6339 116.035 39.9497 114.717C41.2655 113.398 41.9234 112.08 43.2392 110.761C43.8971 109.442 45.2128 108.124 45.8707 106.805C46.5286 105.487 47.1865 104.168 47.8444 103.509C48.5023 102.19 48.5023 101.531 49.1602 100.872C49.1602 100.212 49.8181 100.212 49.8181 100.212C49.8181 100.212 49.1602 100.212 48.5023 100.212C47.8444 100.212 46.5286 100.872 45.8707 100.872C43.2392 101.531 40.6076 102.85 37.3181 104.827C36.0023 105.487 34.6865 105.487 34.0286 106.146C33.3707 106.805 32.7128 107.465 32.055 107.465C30.7392 108.783 29.4234 110.102 28.7655 111.42C26.7918 114.058 25.476 117.354 26.7918 120.65Z"/>
<path d="M38.6339 92.9602C41.2655 91.6416 43.897 89.0044 45.8707 87.0266C46.5286 86.3673 47.1865 85.708 47.1865 85.0487C47.8444 84.3894 48.5023 83.7301 48.5023 83.7301C49.1602 82.4115 50.476 81.7522 51.1339 81.0929C52.4497 79.7743 52.4497 79.115 53.1076 79.115C53.7655 78.4558 53.7655 78.4557 53.7655 78.4557C53.7655 78.4557 52.4497 78.4558 49.8181 79.115C47.1865 79.7743 44.5549 80.4336 41.2655 81.7522C39.9497 82.4115 37.976 83.0708 36.6602 83.7301C35.3444 84.3894 34.0286 85.708 32.7128 87.0266C32.0549 87.6858 31.3971 88.3451 31.3971 89.0044C30.7392 89.6637 30.7392 90.323 30.0813 90.9823C29.4234 92.3009 29.4234 93.6195 29.4234 95.5974C32.7128 95.5974 36.0023 94.9381 38.6339 92.9602Z"/>
<path d="M61.0023 59.3363C59.6865 59.3363 58.3707 59.3363 57.0549 59.3363C55.7392 59.3363 53.7655 59.9956 52.4497 59.9956C50.476 60.6549 48.5023 61.3142 47.1865 61.9735C45.8707 61.9735 45.2129 62.6328 44.555 62.6328C43.8971 63.2921 43.2392 63.9514 42.5813 63.9514C39.9497 65.9292 37.976 67.9071 37.976 71.2036C41.2655 72.5222 44.555 71.8629 47.1865 70.5443C50.476 69.2257 53.1076 67.9071 55.7392 65.9292C58.3707 63.9514 61.0023 62.6328 62.3181 61.3142C63.6339 60.6549 64.9497 59.3363 64.9497 59.3363C64.9497 59.3363 62.976 59.3363 61.0023 59.3363Z"/>
<path d="M76.1339 41.5354C73.5023 41.5354 70.8707 40.8761 67.5813 41.5354C64.2918 41.5354 61.0023 42.1947 57.7129 44.1726C54.4234 45.4911 52.4497 47.469 51.1339 50.1062C52.4497 50.7655 53.7655 51.4248 55.7392 51.4248C57.055 51.4248 59.0286 51.4248 60.3444 51.4248C61.6602 51.4248 63.6339 50.7655 64.9497 50.1062C66.2655 49.4469 68.2392 48.7876 69.555 48.1283C72.8444 46.8097 74.8181 45.4911 76.7918 44.1726C78.7655 42.854 80.0813 42.1947 80.0813 42.1947C80.0813 42.1947 78.7655 41.5354 76.1339 41.5354Z"/>
<path d="M74.1602 25.0531C71.5286 26.3717 68.8971 28.3496 67.5813 30.9867C72.1865 34.2832 79.4234 31.646 85.3444 29.0089C87.976 27.6903 90.6076 26.3717 92.5813 25.0531C94.555 23.7345 95.8707 23.0752 95.8707 23.0752C95.8707 23.0752 89.9497 22.416 83.3707 23.0752C80.0813 23.0752 76.7918 23.7345 74.1602 25.0531Z"/>
<path d="M227.45 247.894C230.081 247.235 232.055 245.916 233.371 244.597C234.029 243.938 234.687 243.279 235.344 242.62C235.344 241.96 236.002 241.96 236.002 241.301C236.002 240.642 236.66 240.642 236.66 239.982C237.318 238.004 237.976 236.686 238.634 234.708C239.292 232.73 239.292 231.412 239.292 229.434C239.292 226.137 237.976 222.841 237.318 220.204C237.318 219.544 236.66 218.226 236.66 217.566C236.66 216.907 236.002 216.248 236.002 216.248C236.002 216.248 236.002 216.907 235.344 216.907C234.687 217.566 234.029 218.226 233.371 219.544C232.713 220.863 232.055 222.181 230.739 223.5C230.081 224.819 228.765 226.137 228.108 228.115C227.45 228.774 227.45 230.093 226.792 230.752C226.792 231.412 226.134 231.412 226.134 232.071C226.134 232.73 225.476 232.73 225.476 233.389C224.818 235.367 224.16 236.686 224.16 238.664C224.16 241.96 224.818 245.916 227.45 247.894Z"/>
<path d="M253.765 203.062C252.45 201.084 251.134 199.766 251.134 199.766C251.134 199.766 250.476 201.084 249.818 203.721C249.818 204.381 249.16 205.04 249.16 205.699C249.16 206.358 248.502 207.018 248.502 207.677C247.844 208.996 247.186 210.973 247.186 212.292V213.611C247.186 214.27 247.186 214.27 246.529 214.929C246.529 215.589 245.871 216.907 245.871 217.566C245.871 219.544 245.213 220.863 245.871 222.841C245.871 226.137 247.186 229.434 250.476 231.412C251.792 230.752 252.45 230.093 253.108 229.434C253.765 228.774 254.423 228.115 255.081 227.456C256.397 226.137 257.055 224.159 257.713 222.841C257.713 222.181 257.713 222.181 258.371 221.522C258.371 220.863 258.371 220.863 258.371 220.204C258.371 219.544 258.371 218.226 258.371 217.566C258.371 215.589 257.713 214.27 257.713 212.292C257.055 210.973 256.397 208.996 255.739 207.677C255.081 205.04 254.423 203.721 253.765 203.062Z"/>
<path d="M271.529 191.854C270.871 191.195 270.871 190.535 270.213 189.876C269.555 189.217 268.897 188.558 268.897 187.898C267.581 186.58 266.923 185.261 265.608 184.602C263.634 182.624 262.318 181.965 262.318 181.965C262.318 181.965 262.318 183.283 261.66 185.92C261.66 187.239 261.66 188.558 261.002 189.876C261.002 191.195 261.002 193.173 261.002 194.491C261.002 195.81 261.002 197.788 261.002 199.765C261.002 200.425 261.002 201.743 261.66 202.403C261.66 203.062 262.318 203.721 262.318 205.04C263.634 208.336 265.608 210.973 268.897 212.292C269.555 211.633 270.871 210.973 271.529 210.314C272.186 209.655 272.844 208.996 272.844 208.336C273.502 207.018 274.16 205.04 274.16 203.062C274.16 202.403 274.16 201.084 274.16 200.425C274.16 199.765 273.502 198.447 273.502 197.788C273.502 195.15 272.186 193.173 271.529 191.854Z"/>
<path d="M275.476 183.942C277.45 186.58 279.423 189.217 283.371 189.876C284.029 189.217 284.687 188.558 285.344 187.898C286.002 187.239 286.002 186.58 286.002 185.261C286.66 183.283 286.66 181.965 286.002 179.987C286.002 179.327 285.344 178.668 285.344 177.35C285.344 176.69 284.687 176.031 284.029 174.712C283.371 173.394 282.055 171.416 280.739 170.097C279.423 168.779 278.108 167.46 276.792 166.801C275.476 165.482 274.16 164.823 273.502 164.164C271.529 162.845 269.555 161.527 269.555 161.527C269.555 161.527 269.555 162.845 269.555 165.482C269.555 166.142 269.555 166.801 269.555 167.46C269.555 168.119 269.555 168.779 269.555 169.438C269.555 170.757 270.213 172.735 270.213 174.053C270.213 175.372 270.871 177.35 271.529 178.668C271.529 179.327 272.187 179.987 272.844 181.305C272.844 181.965 273.502 181.965 273.502 182.624C274.818 183.283 275.476 183.942 275.476 183.942Z"/>
<path d="M292.581 160.867C292.581 159.549 291.923 157.571 291.265 156.252C289.95 152.956 287.318 150.319 284.687 148.341C283.371 147.022 282.055 146.363 280.739 145.044C279.423 144.385 278.108 143.066 276.792 142.407C274.16 141.088 272.844 140.429 272.844 140.429C272.844 140.429 272.844 141.748 273.502 144.385C274.16 146.363 274.818 149.659 276.134 152.956C276.792 154.274 277.45 156.252 278.108 157.571C278.765 158.889 280.081 160.208 281.397 161.527C283.371 164.164 286.66 165.482 290.608 166.142C291.923 164.164 292.581 162.186 292.581 160.867Z"/>
<path d="M297.187 139.111C297.187 137.792 296.529 135.814 295.213 134.496C294.555 133.177 293.239 131.858 291.923 130.54C290.608 129.221 289.292 127.903 287.976 127.243C284.686 125.265 282.055 123.288 279.423 122.628C276.792 121.31 275.476 121.31 275.476 121.31C275.476 121.31 276.134 122.628 276.792 125.266C277.45 126.584 277.45 127.903 278.108 129.221C278.108 129.881 278.765 130.54 279.423 131.199C280.081 131.858 280.081 132.518 280.739 133.177C281.397 134.496 282.713 135.814 283.371 137.133C284.029 137.792 284.686 138.451 285.344 139.111C286.002 139.77 286.66 140.429 287.318 141.088C289.95 143.066 293.239 144.385 296.529 144.385C297.186 142.407 297.844 140.429 297.187 139.111Z"/>
<path d="M296.529 111.42C295.213 110.102 294.555 108.783 293.239 107.465C292.581 106.805 291.923 106.146 291.265 106.146C289.95 105.487 289.292 105.487 288.634 104.827C285.344 102.85 282.055 101.531 280.081 100.872C278.765 100.212 278.108 100.212 277.45 100.212C276.792 100.212 276.134 100.212 276.134 100.212C276.134 100.212 276.134 100.212 276.792 100.872C276.792 101.531 277.45 102.19 278.108 103.509C278.765 104.827 279.423 105.487 280.081 106.805C280.739 108.124 281.397 109.442 282.713 110.761C283.371 112.08 284.686 113.398 286.002 114.717C287.318 116.035 288.634 117.354 289.95 118.013C292.581 119.991 295.871 121.31 299.16 120.65C299.16 117.354 298.502 114.058 296.529 111.42Z"/>
<path d="M293.897 88.3451C293.239 87.6858 293.239 87.0265 292.581 86.3672C291.265 85.0487 289.95 84.3894 288.634 83.0708C287.318 82.4115 285.344 81.0929 284.029 81.0929C280.739 79.7743 277.45 79.115 275.476 78.4557C272.844 77.7964 271.529 77.7964 271.529 77.7964C271.529 77.7964 271.529 77.7964 272.187 78.4557C272.844 79.115 272.844 79.7743 273.502 80.4336C274.16 81.0929 274.818 82.4115 276.134 83.0708C276.792 83.7301 276.792 84.3894 277.45 84.3894C278.108 85.0487 278.765 85.708 278.765 86.3672C280.739 88.3451 283.371 90.9823 286.002 92.3009C288.634 93.6195 291.923 94.938 295.213 94.2787C295.213 92.9602 295.213 90.9823 294.555 89.6637C295.213 89.6637 294.555 89.0044 293.897 88.3451Z"/>
<path d="M282.713 63.9513C282.055 63.2921 281.397 63.2921 280.739 62.6328C280.081 61.9735 279.423 61.9735 278.108 61.3142C276.792 60.6549 274.818 59.9956 272.844 59.9956C270.871 59.3363 269.555 59.3363 268.239 59.3363C266.923 59.3363 264.95 59.3363 264.292 59.3363C261.66 59.3363 260.344 59.3363 260.344 59.3363C260.344 59.3363 261.66 59.9956 262.976 61.3142C264.95 62.6328 266.923 64.6106 269.555 65.9292C272.187 67.9071 274.818 69.2257 278.108 70.5443C280.739 71.8629 284.029 71.8629 287.318 71.2036C287.318 68.5664 285.344 65.9292 282.713 63.9513Z"/>
<path d="M267.581 43.5133C264.292 42.1947 261.002 41.5354 257.713 41.5354C254.423 41.5354 251.134 41.5354 249.16 41.5354C246.529 41.5354 245.213 42.1947 245.213 42.1947C245.213 42.1947 246.529 42.854 248.502 44.1726C250.476 45.4912 253.108 46.8097 255.739 48.1283C257.055 48.7876 259.029 49.4469 260.344 50.1062C261.66 50.7655 263.634 51.4248 264.95 51.4248C266.265 51.4248 268.239 52.0841 269.555 51.4248C270.871 51.4248 272.186 50.7655 273.502 50.1062C272.844 47.469 270.213 45.4912 267.581 43.5133Z"/>
<path d="M239.292 29.0089C245.213 31.646 251.792 34.2832 257.055 30.9867C255.739 28.3496 253.765 26.3717 250.476 25.0531C247.844 23.7345 243.897 23.0752 240.608 22.4159C234.029 21.7567 228.108 22.4159 228.108 22.4159C228.108 22.4159 229.423 23.0752 231.397 24.3938C234.029 26.3717 236.66 27.6903 239.292 29.0089Z"/>
<path d="M301.134 168.779C304.423 169.438 307.713 168.119 311.002 166.142C312.976 164.823 314.292 163.504 315.607 162.186C316.923 160.867 318.239 158.889 319.555 157.571C321.529 154.274 322.844 150.978 324.16 147.681C324.818 145.044 325.476 143.066 325.476 143.066C325.476 143.066 323.502 143.726 321.529 145.044C320.213 145.704 318.897 146.363 317.581 147.681C316.265 148.341 314.292 149.659 312.976 150.978C309.686 152.956 307.055 155.593 304.423 158.889C304.423 158.889 304.423 158.889 304.423 159.549C305.739 154.274 306.397 149 307.055 143.726C310.344 143.726 312.318 142.407 314.95 140.429C315.608 139.77 316.265 139.111 316.923 138.451C317.581 137.792 318.239 137.133 318.897 136.473C320.213 135.155 320.871 133.177 321.529 131.858C322.186 131.199 322.186 129.881 322.844 129.221C322.844 128.562 323.502 127.903 323.502 126.584C324.16 125.265 324.16 123.288 324.818 122.628C325.476 119.991 325.476 118.673 325.476 118.673C325.476 118.673 324.16 119.332 321.529 120.65C319.555 121.969 316.265 123.947 313.634 126.584C312.318 127.903 311.002 129.221 309.686 130.54C309.029 131.199 309.029 131.858 308.371 132.518C308.371 127.903 308.371 123.288 308.371 119.332C310.344 118.673 312.318 117.354 313.634 116.035C314.95 114.717 315.607 113.398 316.923 112.08C317.581 110.761 318.239 108.783 318.897 107.465C319.555 105.487 320.213 104.168 320.213 102.85C320.213 101.531 320.871 99.5531 320.871 98.2345C320.871 96.9159 320.871 95.5973 320.871 94.938C320.871 94.2788 320.871 93.6195 320.871 93.6195C320.871 93.6195 320.871 93.6195 320.213 94.2788C319.555 94.938 318.897 95.5973 317.581 96.2566C315.607 97.5752 312.976 100.212 311.002 102.19C310.344 102.85 309.686 103.509 309.029 104.168C308.371 104.827 307.713 105.487 307.713 106.146C307.713 106.146 307.713 106.805 307.055 106.805C306.397 102.85 305.739 98.2345 304.423 94.2788C306.397 93.6195 307.713 92.3009 309.029 90.323C311.002 87.6858 311.66 84.3894 312.318 81.0929C312.318 80.4336 312.318 79.115 312.318 78.4557C312.318 77.7965 312.318 76.4779 312.318 75.8186C312.318 74.5 312.318 72.5221 312.318 71.2035C312.318 69.885 311.66 68.5664 311.66 67.9071C311.66 67.2478 311.66 66.5885 311.66 66.5885C311.66 66.5885 310.344 67.9071 309.029 69.2257C307.713 71.2035 305.739 73.1814 303.765 76.4779C303.108 77.7965 301.792 79.115 301.134 80.4336C301.134 81.0929 300.476 81.7522 300.476 81.7522C298.502 77.1372 296.529 72.5221 294.555 68.5664C296.529 67.9071 298.502 65.9292 299.16 63.9513C300.476 61.3142 300.476 58.0177 299.818 54.7212C299.16 51.4248 298.502 48.1283 297.186 45.4911C296.529 42.1947 295.871 40.2168 295.871 40.2168C295.871 40.2168 295.213 41.5354 293.897 43.5133C293.239 44.1726 292.581 45.4911 292.581 46.8097C291.923 48.1283 291.265 49.4469 291.265 50.7655C290.607 52.0841 290.607 53.4026 289.95 55.3805C289.95 56.0398 289.95 56.6991 289.95 57.3584V58.0177C286.66 53.4027 283.371 48.7876 280.081 44.1726C281.397 43.5133 282.055 42.854 282.713 42.1947C283.371 40.8761 284.029 40.2168 284.029 38.8982C284.029 37.5796 284.029 36.2611 284.029 34.2832C284.029 32.9646 283.371 30.9867 282.713 29.6681C281.397 26.3717 280.081 23.7345 278.765 21.7566C277.45 19.7788 276.134 18.4602 276.134 18.4602C276.134 18.4602 274.818 19.7788 274.818 21.7566C274.16 23.7345 273.502 26.3717 273.502 29.0088C272.844 31.646 272.844 34.9425 274.16 37.5796V38.2389C269.555 33.6239 264.95 29.0088 259.686 24.3938C264.95 21.7566 263.634 15.1637 260.344 9.88938C259.029 7.25221 257.055 4.61504 255.739 2.63717C253.765 1.31858 253.108 0 253.108 0C253.108 0 251.792 4.61504 251.792 9.88938C251.792 12.5265 252.45 15.1637 253.108 17.8009C253.108 18.4602 253.765 19.1195 253.765 19.1195C249.16 15.1637 240.608 10.5487 240.608 10.5487C273.502 38.2389 298.502 71.2035 301.792 109.442C303.108 123.288 301.792 137.133 299.16 150.978C296.529 166.142 292.581 181.965 284.686 196.469C272.186 218.885 255.739 236.686 233.371 250.531C233.371 250.531 199.818 267.673 163.634 267.673C162.976 267.673 161.66 267.673 161.002 267.673C160.344 267.673 160.344 267.673 159.686 267.673C124.16 267.013 89.9497 250.531 89.9497 250.531C67.5813 236.686 51.1339 218.885 38.6339 196.469C30.7392 181.965 26.7918 166.801 24.1602 150.978C22.1865 137.133 20.2128 123.288 21.5286 109.442C25.476 71.2035 50.476 38.2389 82.7128 10.5487C82.7128 10.5487 74.8181 15.1637 69.5549 19.1195C69.5549 18.4602 70.2128 17.8009 70.2128 17.8009C71.5286 15.1637 71.5286 12.5265 71.5286 9.88938C73.5023 4.61504 72.1865 0 72.1865 0C72.1865 0 70.8707 1.31858 69.5549 3.29646C68.2392 5.27434 66.2655 7.9115 64.9497 10.5487C61.6602 15.823 60.3444 21.7566 65.6076 24.3938C60.3444 29.0088 55.7392 33.6239 51.1339 38.2389V37.5796C52.4497 34.9425 52.4497 31.646 51.7918 29.0088C51.7918 26.3717 51.1339 23.7345 50.476 21.7566C49.8181 19.7788 49.1602 18.4602 49.1602 18.4602C49.1602 18.4602 48.5023 19.7788 47.1865 21.7566C45.8707 24.3938 43.897 27.031 42.5813 30.3274C42.5813 31.646 41.9234 32.9646 41.9234 34.9425C41.9234 36.2611 41.9234 38.2389 41.9234 39.5575C41.9234 40.8761 42.5813 42.1947 43.2392 42.854C43.897 43.5133 44.5549 44.1726 45.8707 44.8319C41.9234 48.7876 38.6339 53.4027 35.3444 58.0177V57.3584C35.3444 56.6991 35.3444 56.0398 35.3444 55.3805C35.3444 54.0619 34.6865 52.0841 34.0286 50.7655C33.3707 49.4469 32.7128 48.1283 32.0549 46.8097C31.3971 45.4911 31.397 44.1726 30.7392 43.5133C29.4234 41.5354 28.7655 40.2168 28.7655 40.2168C28.7655 40.2168 28.1076 42.1947 26.7918 44.1726C26.1339 46.8097 25.476 50.1062 24.8181 53.4027C24.1602 56.6991 24.8181 59.9956 25.476 62.6327C26.1339 64.6106 28.1076 66.5885 30.0813 67.2478C28.1076 71.2035 26.1339 75.8186 24.1602 80.4336C24.1602 79.7743 23.5023 79.115 23.5023 79.115C22.8444 77.7965 22.1865 76.4779 20.8707 75.1593C19.5549 72.5221 17.5813 69.8849 16.2655 68.5664C14.9497 66.5885 13.6339 65.9292 13.6339 65.9292C13.6339 65.9292 13.6339 66.5885 13.6339 67.2478C12.976 67.2478 12.976 68.5664 12.976 69.885C12.976 71.2035 12.976 72.5221 12.976 74.5C12.976 75.1593 12.976 75.8186 12.976 77.1372C12.976 77.7965 12.976 79.115 12.976 79.7743C13.6339 83.0708 14.2918 86.3672 16.2655 89.0044C17.5813 90.9823 18.8971 92.3009 20.8707 92.9602C19.5549 96.9159 18.8971 101.531 18.2392 105.487C18.2392 105.487 18.2392 104.827 17.5813 104.827C16.9234 104.168 16.2655 103.509 15.6076 102.85C14.9497 102.19 14.2918 101.531 13.6339 100.872C11.0023 98.2345 9.02864 96.2566 7.05495 94.938C6.39706 94.2788 5.08127 93.6195 4.42337 92.9602C3.76548 92.3009 3.76548 92.3009 3.76548 92.3009C3.76548 92.3009 3.76548 92.9602 3.76548 93.6195C3.76548 94.2788 3.76548 95.5973 3.76548 96.9159C3.76548 98.2345 3.76548 99.5531 4.42337 101.531C4.42337 102.85 5.08127 104.827 5.73916 106.146C6.39706 108.124 7.05495 109.442 7.71285 110.761C8.37074 112.08 9.68653 113.398 11.0023 114.717C12.3181 116.035 14.2918 117.354 16.2655 118.013C16.2655 122.628 16.2655 126.584 16.2655 131.199C15.6076 130.54 15.6076 129.881 14.9497 129.221C13.6339 127.903 12.3181 126.584 11.0023 125.265C8.37074 122.628 5.08127 120.65 3.10758 119.332C1.1339 118.013 -0.839783 117.354 -0.839783 117.354C-0.839783 117.354 -0.839783 119.332 -0.181888 121.31C-0.181888 122.628 0.476006 123.947 1.1339 125.265C1.1339 125.925 1.7918 126.584 1.7918 127.903C1.7918 128.562 2.44969 129.881 3.10758 130.54C3.76548 132.518 5.08127 133.836 5.73916 135.155C6.39706 135.814 7.05495 136.473 7.71285 137.133C8.37074 137.792 9.02864 138.451 9.68653 139.111C11.6602 141.088 14.2918 142.407 17.5813 142.407C18.2392 147.681 18.8971 152.956 20.2128 158.23C20.2128 158.23 20.2128 158.23 20.2128 157.571C17.5813 154.934 14.9497 152.296 11.6602 149.659C10.3444 148.341 8.37074 147.681 7.05495 146.363C5.73916 145.704 4.42337 144.385 3.10758 143.726C1.7918 144.385 -0.181888 143.726 -0.181888 143.726C-0.181888 143.726 0.476006 145.704 1.1339 148.341C2.44969 150.978 3.76548 154.274 5.73916 158.23C7.05495 160.208 8.37074 161.527 9.68653 162.845C11.0023 164.164 12.3181 165.482 14.2918 166.801C17.5813 168.779 20.8707 170.097 24.1602 169.438C24.1602 170.097 24.8181 170.757 24.8181 171.416C26.1339 176.031 27.4497 180.646 29.4234 185.261C28.7655 184.602 28.7655 184.602 28.1076 183.942C27.4497 183.283 26.7918 182.624 25.476 181.965C24.8181 181.305 24.1602 180.646 22.8444 179.987C20.8707 178.668 19.5549 178.009 17.5813 176.69C15.6076 176.031 13.6339 174.712 12.3181 174.053C10.3444 173.394 9.02864 172.735 7.71285 172.075C5.08127 170.757 3.10758 170.097 3.10758 170.097C3.10758 170.097 3.76548 172.075 5.08127 174.712C5.73916 176.031 7.05495 177.35 7.71285 179.327C9.02864 180.646 10.3444 182.624 11.6602 184.602C12.976 185.92 14.9497 187.898 16.2655 189.217C16.9234 189.876 18.2392 190.535 18.8971 191.195C19.5549 191.195 20.2128 191.195 20.2128 191.195C20.8707 191.195 20.8707 191.854 21.5286 191.854C25.476 193.832 28.7655 193.832 32.0549 192.513C34.6865 197.788 37.3181 202.403 40.6076 207.018C39.9497 206.358 39.2918 206.358 38.6339 205.699C37.976 205.04 36.6602 204.381 36.0023 204.381C36.0023 204.381 34.6865 204.381 34.0286 203.721C32.0549 203.062 30.0813 201.743 27.4497 201.084C26.1339 200.425 25.476 200.425 24.1602 199.765C22.8444 199.765 22.1865 199.106 20.8707 199.106C19.5549 198.447 17.5813 198.447 16.2655 197.788C12.976 197.128 11.0023 196.469 11.0023 196.469C11.0023 196.469 12.3181 198.447 14.2918 201.084C15.6076 202.403 16.9234 203.721 18.2392 205.04C19.5549 206.358 21.5286 208.336 23.5023 209.655C25.476 210.973 27.4497 212.292 29.4234 213.611C30.7392 214.27 31.3971 214.929 32.7128 214.929C34.0286 215.588 34.6865 215.588 36.0023 216.248C39.9497 217.566 43.897 217.566 47.1865 215.588C50.476 219.544 53.7655 224.159 57.7128 228.115C57.7128 228.115 57.7128 228.115 57.0549 228.115C56.397 228.115 55.7392 227.456 55.7392 227.456C55.0813 227.456 54.4234 226.796 54.4234 226.796C53.1076 226.137 52.4497 226.137 51.1339 225.478C48.5023 224.819 45.8707 224.819 43.897 224.159C41.2655 223.5 39.2918 223.5 37.3181 222.841C35.3444 222.841 33.3707 222.181 31.3971 222.181C28.1076 222.181 26.1339 221.522 26.1339 221.522C26.1339 221.522 28.1076 223.5 30.7392 225.478C31.397 226.137 32.0549 226.796 33.3707 227.456C34.0286 228.115 35.3444 228.774 36.0023 229.434C37.976 230.752 39.9497 232.071 42.5813 233.389C43.2392 233.389 43.897 234.049 44.5549 234.049C45.2128 234.049 45.8707 234.708 46.5286 234.708C47.8444 235.367 49.1602 235.367 49.8181 236.027C52.4497 236.686 54.4234 237.345 57.0549 238.004C61.0023 238.664 64.2918 238.004 66.9234 236.027C70.2128 238.664 72.8444 241.96 76.1339 244.597C74.8181 244.597 74.1602 244.597 72.8444 243.938C70.2128 243.938 67.5813 243.938 65.6076 243.279C61.0023 243.279 56.397 243.279 52.4497 243.279C50.476 243.279 49.1602 243.279 48.5023 243.938C47.8444 243.938 47.1865 243.938 47.1865 243.938C47.1865 243.938 47.1865 243.938 47.8444 243.938C47.8444 243.938 48.5023 244.597 49.1602 244.597C49.8181 245.257 51.7918 245.916 53.1076 247.234C55.0813 247.894 57.0549 249.212 59.0286 250.531C61.0023 251.19 63.6339 252.509 66.2655 253.168C67.5813 253.827 68.897 253.827 70.2128 254.487C70.8707 254.487 71.5286 255.146 72.1865 255.146C72.8444 255.146 73.5023 255.146 74.1602 255.805C76.7918 256.465 79.4234 256.465 81.397 256.465C84.6865 256.465 87.3181 255.805 89.2918 254.487C90.6076 255.146 91.9234 255.805 93.2391 256.465H93.897C111.002 265.695 132.055 271.628 149.16 273.606C135.344 276.243 118.897 278.881 101.792 281.518L83.3707 297.341C83.3707 297.341 125.476 283.496 164.292 274.265C203.108 283.496 245.213 297.341 245.213 297.341L226.792 281.518C209.029 278.881 192.581 275.584 178.108 272.947C199.818 270.31 217.581 264.376 232.055 255.805C232.055 255.805 232.055 255.805 232.713 255.805C234.029 255.146 235.344 254.487 236.66 253.827C238.634 255.146 241.923 255.805 244.555 255.805C247.186 255.805 249.16 255.805 251.792 255.146C252.45 255.146 253.107 255.146 253.765 254.487C254.423 254.487 255.081 254.487 255.739 253.827C257.055 253.168 258.371 253.168 259.686 252.509C262.318 251.85 264.95 250.531 266.923 249.872C268.897 248.553 270.871 247.894 272.844 246.575C274.818 245.916 276.134 244.597 276.792 244.597C277.45 244.597 277.45 243.938 278.107 243.938H278.765C278.765 243.938 278.108 243.938 277.45 243.938C276.792 243.938 274.818 243.938 273.502 243.279C270.213 243.279 265.607 242.619 260.344 243.279C257.713 243.279 255.081 243.279 253.108 243.938C251.792 243.938 251.134 243.938 249.818 244.597C253.108 241.96 256.397 239.323 259.029 236.027C261.66 237.345 264.95 238.004 268.897 238.004C270.871 238.004 273.502 237.345 276.134 236.027C277.45 235.367 278.765 235.367 279.423 234.708C280.081 234.708 280.739 234.049 281.397 234.049C282.055 234.049 282.713 233.389 283.371 233.389C285.344 232.071 287.976 230.752 289.95 229.434C291.265 228.774 291.923 228.115 292.581 227.456C293.239 226.796 293.897 226.137 295.213 225.478C297.844 222.841 299.818 221.522 299.818 221.522C299.818 221.522 297.844 221.522 294.555 222.181C292.581 222.181 291.265 222.841 288.634 222.841C286.66 222.841 284.686 223.5 282.055 224.159C279.423 224.819 277.45 224.819 274.818 225.478C273.502 225.478 272.844 226.137 271.529 226.796C270.871 226.796 270.213 227.456 270.213 227.456C269.555 227.456 268.897 228.115 268.897 228.115C268.897 228.115 268.897 228.115 268.239 228.115C272.186 224.159 275.476 220.204 278.765 215.588C282.055 217.566 286.002 217.566 289.95 216.248C291.265 216.248 291.923 215.588 293.239 214.929C294.555 214.27 295.213 214.27 296.529 213.611C298.502 212.292 300.476 210.973 302.45 209.655C304.423 208.336 305.739 206.358 307.713 205.04C309.029 203.721 311.002 202.403 311.66 201.084C313.634 198.447 314.95 196.469 314.95 196.469C314.95 196.469 312.976 197.128 309.686 197.788C308.371 198.447 306.397 198.447 304.423 199.106C303.765 199.106 302.45 199.765 301.134 199.765C299.818 199.765 299.16 200.425 297.844 201.084C295.871 201.743 293.897 202.403 291.265 203.721C289.95 204.381 289.292 204.381 287.976 205.04C286.66 205.699 286.002 206.358 285.344 206.358C284.686 207.018 284.029 207.018 283.371 207.677C286.66 203.062 289.95 197.788 291.923 193.173C295.213 194.491 299.16 193.832 302.45 192.513C303.107 192.513 303.108 191.854 303.765 191.854C304.423 191.854 304.423 191.195 305.081 191.195C305.739 190.535 307.055 189.876 307.713 189.217C309.686 187.898 311.002 186.58 312.318 184.602C313.634 183.283 314.95 181.305 316.265 179.327C317.581 178.009 318.239 176.031 318.897 174.712C320.213 172.075 320.871 170.097 320.871 170.097C320.871 170.097 318.897 170.757 316.265 172.075C314.95 172.735 312.976 173.394 311.66 174.053C309.686 174.712 308.371 176.031 306.397 176.69C304.423 177.35 302.45 178.668 301.134 179.987C300.476 180.646 299.16 181.305 298.502 181.965C297.844 182.624 297.186 183.283 295.871 183.942C295.213 184.602 295.213 184.602 294.555 185.261C296.529 180.646 297.844 176.031 299.16 171.416C301.134 170.097 301.134 169.438 301.134 168.779Z"/>
</g>
</svg>
